<svg xmlns="http://www.w3.org/2000/svg" viewBox="0 0 32 32">
  <defs>
    <linearGradient id="ff" x1="0" y1="1" x2="0" y2="0">
      <stop offset="0%" stop-color="#6366f1" stop-opacity="0.12"/>
      <stop offset="100%" stop-color="#6366f1" stop-opacity="0.55"/>
    </linearGradient>
    <radialGradient id="ray" cx="16" cy="16" r="15" gradientUnits="userSpaceOnUse">
      <stop offset="0%" stop-color="#c4b5fd" stop-opacity="1"/>
      <stop offset="100%" stop-color="#6366f1" stop-opacity="0.15"/>
    </radialGradient>
    <linearGradient id="arr" x1="0" y1="0" x2="0" y2="1">
      <stop offset="0%" stop-color="#c4b5fd" stop-opacity="1"/>
      <stop offset="15%" stop-color="#c4b5fd" stop-opacity="1"/>
      <stop offset="35%" stop-color="#6366f1" stop-opacity="1"/>
    </linearGradient>
    <linearGradient id="bot" x1="3" y1="16" x2="29" y2="16" gradientUnits="userSpaceOnUse">
      <stop offset="0" stop-color="#6366f1" stop-opacity="0.4"/>
      <stop offset="0.30" stop-color="#6366f1" stop-opacity="0.4"/>
      <stop offset="0.35" stop-color="#c4b5fd" stop-opacity="1"/>
      <stop offset="0.65" stop-color="#c4b5fd" stop-opacity="1"/>
      <stop offset="0.70" stop-color="#6366f1" stop-opacity="0.4"/>
      <stop offset="1" stop-color="#6366f1" stop-opacity="0.4"/>
    </linearGradient>
  </defs>
  <path d="M 3 16 Q 3 2 13 2 L 19 2 Q 29 2 29 16 L 3 16 Z" fill="url(#ff)"/>
  <path d="M 3 16 Q 3 2 13 2 L 19 2 Q 29 2 29 16" fill="none" stroke="#6366f1" stroke-width="0.35" stroke-opacity="0.4" stroke-linejoin="round"/>
  <line x1="3" y1="16" x2="29" y2="16" stroke="url(#bot)" stroke-width="0.35"/>
  <polygon points="9,22 16,16 23,22" fill="url(#arr)"/>
  <rect x="14" y="22" width="4" height="7" fill="#6366f1"/>
  <line x1="16" y1="16" x2="16" y2="7" stroke="url(#ray)" stroke-width="1.0" stroke-linecap="round"/>
  <line x1="16" y1="16" x2="8" y2="11" stroke="url(#ray)" stroke-width="1.0" stroke-linecap="round"/>
  <line x1="16" y1="16" x2="24" y2="11" stroke="url(#ray)" stroke-width="1.0" stroke-linecap="round"/>
  <line x1="16" y1="7" x2="12" y2="2.5" stroke="url(#ray)" stroke-width="1.0" stroke-linecap="round"/>
  <line x1="16" y1="7" x2="20" y2="2.5" stroke="url(#ray)" stroke-width="1.0" stroke-linecap="round"/>
  <line x1="8" y1="11" x2="5" y2="7" stroke="url(#ray)" stroke-width="1.0" stroke-linecap="round"/>
  <line x1="8" y1="11" x2="4" y2="10" stroke="url(#ray)" stroke-width="1.0" stroke-linecap="round"/>
  <line x1="24" y1="11" x2="27" y2="7" stroke="url(#ray)" stroke-width="1.0" stroke-linecap="round"/>
  <line x1="24" y1="11" x2="28" y2="10" stroke="url(#ray)" stroke-width="1.0" stroke-linecap="round"/>
  <circle cx="16" cy="7" r="0.8" fill="url(#ray)"/>
  <circle cx="8" cy="11" r="0.8" fill="url(#ray)"/>
  <circle cx="24" cy="11" r="0.8" fill="url(#ray)"/>
</svg>
